<!--?xml version="1.0" encoding="utf-8"?-->
<!-- Generator: Adobe Illustrator 18.1.1, SVG Export Plug-In . SVG Version: 6.00 Build 0)  -->

<svg version="1.1" id="_x31_0" xmlns="http://www.w3.org/2000/svg" xmlns:xlink="http://www.w3.org/1999/xlink" x="0px" y="0px" viewBox="0 0 512 512" style="width: 128px; height: 128px; opacity: 1;" xml:space="preserve">
<style type="text/css">
	.st0{fill:#374149;}
</style>
<g>
	<path class="st0" d="M154.719,107.149l-43.832-43.993h39.75c3.199,0,6.356-0.48,9.387-1.422c1.957-0.61,3.863-1.414,5.668-2.394
		c2.672-1.454,5.121-3.282,7.273-5.434c2.153-2.156,3.981-4.602,5.434-7.274c2.497-4.59,3.817-9.797,3.813-15.054
		c0-4.262-0.832-8.395-2.48-12.294c-0.794-1.87-1.774-3.675-2.914-5.367c-2.282-3.37-5.145-6.238-8.519-8.519
		C163.07,1.867,156.964,0,150.636,0H34.196C25.84,0,17.984,3.258,12.078,9.164c-5.91,5.906-9.164,13.762-9.164,22.118v116.441
		c0,17.41,14.164,31.574,31.578,31.578c3.199,0,6.359-0.481,9.382-1.422c1.961-0.61,3.867-1.414,5.672-2.395
		c2.672-1.453,5.118-3.281,7.274-5.434c2.152-2.152,3.98-4.601,5.434-7.269c2.496-4.594,3.816-9.801,3.816-15.059v-23.527
		l0.11-16.274l106.172,106.172c12.313,12.309,32.344,12.309,44.656,0c12.313-12.312,12.313-32.347,0-44.656L154.719,107.149z" style="fill: rgb(75, 75, 75);"></path>
	<path class="st0" d="M172.352,297.91l-62.27,62.27L66.07,404.031v-39.75c0-5.258-1.32-10.465-3.816-15.059
		c-1.454-2.668-3.282-5.117-5.434-7.27c-2.156-2.156-4.602-3.984-7.274-5.434c-1.805-0.98-3.711-1.785-5.672-2.394
		c-3.023-0.945-6.183-1.422-9.382-1.422c-17.414,0-31.578,14.164-31.578,31.578v116.441c0,8.356,3.254,16.211,9.164,22.118
		c5.906,5.906,13.762,9.16,22.118,9.16h116.441c6.328,0,12.434-1.867,17.661-5.394c3.374-2.282,6.238-5.149,8.519-8.52
		c1.141-1.691,2.121-3.496,2.914-5.367c1.648-3.898,2.48-8.031,2.48-12.293c0.004-5.258-1.316-10.465-3.813-15.058
		c-1.453-2.672-3.281-5.117-5.434-7.27c-2.152-2.156-4.601-3.984-7.273-5.434c-1.805-0.981-3.711-1.785-5.668-2.394
		c-3.031-0.942-6.188-1.422-9.387-1.422h-23.371l-16.43-0.114l106.172-106.168c12.313-12.313,12.313-32.344,0-44.656
		C204.696,285.602,184.664,285.602,172.352,297.91z" style="fill: rgb(75, 75, 75);"></path>
	<path class="st0" d="M499.922,9.164C494.016,3.258,486.16,0,477.804,0H361.364c-6.325,0-12.434,1.867-17.661,5.398
		c-3.371,2.282-6.238,5.149-8.519,8.519c-1.141,1.692-2.121,3.497-2.91,5.367c-1.648,3.898-2.484,8.032-2.484,12.294
		c0,5.258,1.316,10.465,3.812,15.054c1.454,2.672,3.282,5.118,5.434,7.274c2.157,2.152,4.602,3.98,7.274,5.434
		c1.805,0.98,3.715,1.785,5.672,2.394c3.027,0.942,6.184,1.422,9.383,1.422h23.37l16.43,0.11L294.992,169.438
		c-12.309,12.309-12.309,32.344,0,44.656c12.312,12.309,32.347,12.309,44.656,0l62.18-62.179l44.102-43.946l0.003,39.754
		c-0.003,5.258,1.317,10.465,3.813,15.059c1.453,2.668,3.282,5.117,5.434,7.269c2.156,2.153,4.602,3.981,7.274,5.434
		c1.805,0.981,3.714,1.786,5.672,2.395c3.027,0.941,6.183,1.422,9.382,1.422c17.414-0.004,31.578-14.168,31.578-31.578V31.282
		C509.086,22.926,505.832,15.07,499.922,9.164z" style="fill: rgb(75, 75, 75);"></path>
	<path class="st0" d="M477.508,332.703c-3.199,0-6.355,0.477-9.382,1.422c-1.958,0.61-3.867,1.414-5.672,2.394
		c-2.672,1.45-5.118,3.278-7.274,5.434c-2.152,2.153-3.981,4.602-5.434,7.27c-2.496,4.594-3.816,9.801-3.813,15.059l-0.003,23.414
		l-0.11,16.387L339.648,297.91c-12.309-12.309-32.344-12.309-44.656,0c-12.309,12.312-12.309,32.343,0,44.656l62.582,62.582
		l43.543,43.699h-39.754c-3.199,0-6.356,0.48-9.383,1.422c-1.957,0.61-3.867,1.414-5.672,2.394c-2.672,1.45-5.117,3.278-7.274,5.434
		c-2.152,2.153-3.98,4.598-5.434,7.27c-2.496,4.594-3.812,9.801-3.812,15.058c0,4.262,0.836,8.394,2.484,12.293
		c0.79,1.871,1.77,3.676,2.91,5.367c2.281,3.371,5.148,6.238,8.519,8.52c5.227,3.527,11.336,5.394,17.661,5.394h116.441
		c8.356,0,16.211-3.254,22.118-9.16c5.91-5.906,9.164-13.762,9.164-22.118V364.282C509.086,346.867,494.922,332.703,477.508,332.703
		z" style="fill: rgb(75, 75, 75);"></path>
</g>
</svg>
