<!--?xml version="1.0" encoding="utf-8"?-->
<!-- Generator: Adobe Illustrator 18.1.1, SVG Export Plug-In . SVG Version: 6.00 Build 0)  -->

<svg version="1.1" id="_x31_0" xmlns="http://www.w3.org/2000/svg" xmlns:xlink="http://www.w3.org/1999/xlink" x="0px" y="0px" viewBox="0 0 512 512" style="width: 256px; height: 256px; opacity: 1;" xml:space="preserve">
<style type="text/css">
	.st0{fill:#374149;}
</style>
<g>
	<path class="st0" d="M511.867,256.098c0.031-0.019,0.106-0.078,0.133-0.098c-15.702-11.611-89.806-66.426-152.134-112.525
		L269.4,76.447v0.121c-0.035-0.031-0.125-0.094-0.156-0.121c0,33.397,0,66.798,0,100.194c0,2.196,0.691,5.942,0,8.064
		c-1.153,3.52,0.156,2.274-5.946,2.914c-19.824,2.082-39.914,2.907-59.812,1.462c-39.48-2.868-79.96-11.494-115.259-29.998
		c-18.293-9.592-35.366-20.727-51.041-34.202c-2.958-2.539-5.806-5.165-8.599-7.833c-0.192-0.18-0.387-0.356-0.574-0.539
		c-7.759-7.451-15.05-15.304-22.501-23.118l-2.527-2.79c-0.008,0.039-0.012,0.078-0.02,0.113c-0.046-0.05-0.094-0.098-0.137-0.144
		c-3.528,16.714-3.578,33.76-1.125,50.494c0.004,0.039,0.012,0.078,0.015,0.117c0.61,4.126,1.356,8.217,2.278,12.291
		c0.137,0.622,0.293,1.239,0.441,1.86c0.829,3.493,1.727,6.962,2.774,10.404c0.543,1.825,1.18,3.638,1.786,5.458
		c0.75,2.2,1.465,4.407,2.297,6.579c1.907,5.079,3.978,10.138,6.361,15.14c0.786,1.422,1.852,3.34,3.219,5.794
		c0.004,0.004,0.004,0.012,0.004,0.012c-4.391-7.885-11.397-20.094,1.966,3.848c0.523,0.864,0.726,1.169,0.71,1.09
		c24.751,40.366,58.492,72.717,100.874,94.427c44.754,22.926,94.662,33.682,144.816,33.421c0,34.682,0,69.364,0,104.046
		c22.469-16.62,164.538-121.702,220.486-163.081l22.176-16.343L511.867,256.098z" style="fill: rgb(75, 75, 75);"></path>
</g>
</svg>
