<!--?xml version="1.0" encoding="utf-8"?-->
<!-- Generator: Adobe Illustrator 19.1.1, SVG Export Plug-In . SVG Version: 6.00 Build 0)  -->
<svg version="1.1" id="_x31_0" xmlns="http://www.w3.org/2000/svg" xmlns:xlink="http://www.w3.org/1999/xlink" x="0px" y="0px" viewBox="0 0 512 512" style="width: 256px; height: 256px; opacity: 1;" xml:space="preserve">
<style type="text/css">
	.st0{fill:#374149;}
</style>
<g>
	<path class="st0" d="M255.998,200.473c-30.609,0-55.523,24.91-55.523,55.527c0,30.614,24.914,55.523,55.523,55.523
		c30.622,0,55.527-24.91,55.527-55.523C311.526,225.383,286.62,200.473,255.998,200.473z" style="fill: rgb(75, 75, 75);"></path>
	<path class="st0" d="M489.382,328.18l-35.668-23.649c-6.141-4.047-9.406-11.363-8.23-18.68c1.57-9.801,2.351-19.73,2.351-29.789
		c0-10.187-0.781-20.117-2.351-29.785c-1.176-7.317,2.09-14.633,8.23-18.684l35.668-23.648c8.359-5.618,10.973-16.723,6.008-25.344
		l-35.274-61.141c-5.094-8.754-15.938-12.019-24.954-7.449l-38.281,19.074c-6.66,3.266-14.629,2.352-20.379-2.218
		c-15.418-12.543-32.793-22.602-51.606-29.918c-6.793-2.614-11.496-9.016-12.019-16.462l-2.614-42.722
		C309.612,7.836,301.382,0,291.323,0h-70.551c-10.058,0-18.418,7.836-18.942,17.766l-2.613,42.722
		c-0.524,7.446-5.227,13.848-12.153,16.462c-18.812,7.316-36.187,17.374-51.602,29.918c-5.75,4.57-13.59,5.484-20.254,2.218
		L76.932,90.012c-9.015-4.57-19.988-1.305-24.953,7.449l-35.274,61.141c-5.098,8.621-2.484,19.726,5.879,25.344l35.797,23.648
		c6.141,4.051,9.406,11.367,8.23,18.684c-1.566,9.668-2.352,19.598-2.352,29.785c0,10.058,0.786,19.988,2.352,29.789
		c1.176,7.317-2.09,14.633-8.23,18.68L22.585,328.18c-8.363,5.488-10.977,16.594-5.879,25.214l35.274,61.274
		c4.965,8.621,15.938,11.886,24.953,7.446l38.278-19.074c6.664-3.394,14.504-2.481,20.254,2.222
		c15.414,12.41,32.79,22.602,51.602,29.786c6.926,2.613,11.629,9.144,12.153,16.461l2.613,42.722
		c0.524,9.93,8.883,17.77,18.942,17.77h70.551c10.058,0,18.289-7.84,18.941-17.77l2.614-42.722
		c0.523-7.317,5.226-13.848,12.019-16.461c18.813-7.184,36.188-17.375,51.606-29.786c5.75-4.703,13.719-5.617,20.379-2.222
		l38.281,19.074c9.016,4.441,19.86,1.175,24.954-7.446l35.274-61.274C500.354,344.774,497.741,333.668,489.382,328.18z
		 M371.538,256.062c0,63.758-51.734,115.492-115.492,115.492c-63.754,0-115.489-51.734-115.489-115.492
		c0-63.882,51.734-115.621,115.489-115.621C319.803,140.442,371.538,192.18,371.538,256.062z" style="fill: rgb(75, 75, 75);"></path>
</g>
</svg>
